<svg xmlns="http://www.w3.org/2000/svg"  viewBox="0 0 50 50" width="50px" height="50px"><path d="M 14 3.9902344 C 8.489 3.9902344 4 8.4792344 4 13.990234 L 4 35.990234 C 4 41.501234 8.489 45.990234 14 45.990234 L 36 45.990234 C 41.511 45.990234 46 41.501234 46 35.990234 L 46 13.990234 C 46 8.4792344 41.511 3.9902344 36 3.9902344 L 14 3.9902344 z M 14 5.9902344 L 36 5.9902344 C 40.431 5.9902344 44 9.5592344 44 13.990234 L 44 35.990234 C 44 40.421234 40.431 43.990234 36 43.990234 L 14 43.990234 C 9.569 43.990234 6 40.421234 6 35.990234 L 6 13.990234 C 6 9.5602344 9.569 5.9902344 14 5.9902344 z M 12.386719 13.8125 L 12.386719 24.736328 L 15.117188 24.736328 L 15.117188 20.640625 L 17.164062 20.640625 L 17.164062 24.736328 L 19.896484 24.736328 L 19.896484 13.8125 L 17.164062 13.8125 L 17.164062 17.908203 L 15.117188 17.908203 L 15.117188 13.8125 L 12.386719 13.8125 z M 20.578125 13.8125 L 20.578125 24.734375 L 22.558594 24.734375 L 23.21875 24.734375 L 23.21875 24.736328 L 25.197266 24.736328 C 27.177266 24.736328 28.498047 23.522859 28.498047 22.005859 C 28.498047 21.655859 28.447281 21.324578 28.363281 21.017578 C 29.085281 23.185578 31.117062 24.736328 33.539062 24.736328 C 36.572063 24.736328 39 22.307437 39 19.273438 C 39 16.239438 36.573062 13.8125 33.539062 13.8125 C 31.136063 13.8125 29.119812 15.338516 28.382812 17.478516 C 28.453813 17.186516 28.498047 16.872969 28.498047 16.542969 C 28.498047 15.025969 27.177266 13.8125 25.197266 13.8125 L 20.578125 13.8125 z M 23.308594 16.544922 L 24.802734 16.544922 C 25.280734 16.544922 25.697266 16.941484 25.697266 17.396484 C 25.697266 17.851484 25.280734 18.251953 24.802734 18.251953 L 23.308594 18.251953 L 23.308594 16.544922 z M 33.537109 16.544922 C 35.066109 16.544922 36.269531 17.746391 36.269531 19.275391 C 36.269531 20.804391 35.066109 22.005859 33.537109 22.005859 C 32.008109 22.005859 30.806641 20.804391 30.806641 19.275391 C 30.806641 17.746391 32.008109 16.544922 33.537109 16.544922 z M 33.537109 17.601562 C 32.601109 17.601562 31.865234 18.336437 31.865234 19.273438 C 31.865234 20.210438 32.601109 20.945312 33.537109 20.945312 C 34.473109 20.945312 35.210938 20.210438 35.210938 19.273438 C 35.210938 18.337438 34.473109 17.601563 33.537109 17.601562 z M 28.275391 17.824219 C 28.150391 18.285219 28.076172 18.770437 28.076172 19.273438 C 28.076172 19.812438 28.155828 20.331266 28.298828 20.822266 C 27.985828 19.905266 27.323578 19.273438 26.517578 19.273438 C 27.340578 19.274437 27.963391 18.686219 28.275391 17.824219 z M 23.308594 20.298828 L 24.802734 20.298828 C 25.280734 20.298828 25.697266 20.698344 25.697266 21.152344 C 25.697266 21.606344 25.280734 22.005859 24.802734 22.005859 L 23.308594 22.005859 L 23.308594 20.298828 z M 26.720703 25.572266 C 24.146703 25.572266 22.054687 27.951906 22.054688 30.878906 C 22.054688 33.805906 24.147703 36.185547 26.720703 36.185547 C 27.930703 36.185547 29.031328 35.654969 29.861328 34.792969 L 29.861328 35.041016 C 29.861328 35.569016 30.288406 35.996094 30.816406 35.996094 L 31.773438 35.996094 L 31.773438 25.757812 L 30.816406 25.757812 C 30.288406 25.757812 29.861328 26.183891 29.861328 26.712891 L 29.861328 26.960938 C 29.031328 26.101938 27.929703 25.572266 26.720703 25.572266 z M 31.955078 25.759766 L 35.183594 30.134766 C 35.538594 30.616766 35.538594 31.273859 35.183594 31.755859 L 32.103516 35.929688 L 33.789062 35.929688 C 34.223062 35.929688 34.630672 35.723 34.888672 35.375 L 36.640625 33.001953 C 36.804625 32.778953 37.136781 32.778953 37.300781 33.001953 L 39.052734 35.375 C 39.310734 35.724 39.718344 35.929688 40.152344 35.929688 L 41.835938 35.929688 L 38.757812 31.755859 C 38.402813 31.273859 38.401859 30.617766 38.755859 30.134766 L 41.982422 25.759766 L 40.298828 25.759766 C 39.864828 25.759766 39.457219 25.966453 39.199219 26.314453 L 37.300781 28.886719 C 37.136781 29.109719 36.804625 29.109719 36.640625 28.886719 L 34.740234 26.314453 C 34.482234 25.965453 34.076578 25.759766 33.642578 25.759766 L 31.955078 25.759766 z M 17.746094 25.828125 C 17.453094 25.818125 17.151703 25.840391 16.845703 25.900391 C 15.993703 26.065391 15.276141 26.536922 14.744141 27.169922 C 13.888141 26.178922 12.545937 25.615391 11.085938 25.900391 C 9.2669375 26.255391 8.0175781 27.961406 8.0175781 29.816406 L 8.0175781 35.042969 C 8.0175781 35.570969 8.4466094 35.998047 8.9746094 35.998047 L 9.9296875 35.998047 L 9.9296875 29.662109 C 9.9296875 28.602109 10.791563 27.738281 11.851562 27.738281 C 12.911563 27.738281 13.775391 28.601109 13.775391 29.662109 L 13.775391 35.042969 C 13.775391 35.570969 14.204422 35.998047 14.732422 35.998047 L 15.685547 35.998047 L 15.685547 29.662109 C 15.685547 28.602109 16.548375 27.738281 17.609375 27.738281 C 18.669375 27.738281 19.533203 28.601109 19.533203 29.662109 L 19.533203 35.042969 C 19.533203 35.570969 19.961234 35.998047 20.490234 35.998047 L 21.445312 35.998047 L 21.445312 29.662109 C 21.448313 27.593109 19.799094 25.900125 17.746094 25.828125 z M 26.720703 27.482422 C 28.239703 27.482422 29.478516 29.004906 29.478516 30.878906 C 29.478516 32.752906 28.241703 34.273438 26.720703 34.273438 C 25.199703 34.273438 23.966797 32.752906 23.966797 30.878906 C 23.966797 29.005906 25.201703 27.482422 26.720703 27.482422 z"/></svg>